<svg width="155" height="23" viewBox="0 0 155 23" fill="none" xmlns="http://www.w3.org/2000/svg">
<g clip-path="url(#clip0)">
<path d="M25.649 18H26.771V12.288H29.372C31.259 12.288 32.993 11.319 32.993 9.143C32.993 6.627 30.817 5.964 29.117 5.964H25.649V18ZM26.771 6.984H29.253C30.545 6.984 31.871 7.596 31.871 9.143C31.871 10.724 30.596 11.268 29.321 11.268H26.771V6.984ZM36.0227 6.984H38.4027C40.7657 6.984 41.2247 8.293 41.2247 9.126C41.2247 9.959 40.7657 11.268 38.4027 11.268H36.0227V6.984ZM34.9007 18H36.0227V12.288H38.1137L41.4967 18H42.7717L39.2697 12.22C40.5957 12.05 42.3467 11.421 42.3467 9.126C42.3467 5.964 39.0147 5.964 38.0627 5.964H34.9007V18ZM44.4679 18H45.5899V5.964H44.4679V18ZM48.2549 18H49.3769V7.392H49.4109L54.0689 18H54.5619L59.1519 7.392H59.1859V18H60.3079V5.964H58.7099L54.3239 16.062L49.9379 5.964H48.2549V18ZM62.9713 18H70.6043V16.98H64.0933V12.288H69.9413V11.268H64.0933V6.984H70.3323V5.964H62.9713V18ZM72.0115 8.888C72.0115 10.01 72.7595 11.217 73.9325 11.54V11.557C72.4025 11.88 71.5865 13.206 71.5865 14.651C71.5865 16.81 73.1845 18.204 75.3095 18.204C77.4345 18.204 79.0325 16.81 79.0325 14.651C79.0325 13.206 78.2165 11.88 76.6865 11.557V11.54C77.8595 11.217 78.6075 10.01 78.6075 8.888C78.6075 7.018 77.1795 5.76 75.3095 5.76C73.4395 5.76 72.0115 7.018 72.0115 8.888ZM73.1335 8.888C73.1335 7.562 74.0685 6.678 75.3095 6.678C76.5505 6.678 77.4855 7.562 77.4855 8.888C77.4855 10.095 76.6015 11.098 75.3095 11.098C74.0175 11.098 73.1335 10.095 73.1335 8.888ZM72.7085 14.651C72.7085 13.07 73.8645 12.016 75.3095 12.016C76.7545 12.016 77.9105 13.07 77.9105 14.651C77.9105 16.096 76.8905 17.286 75.3095 17.286C73.7285 17.286 72.7085 16.096 72.7085 14.651ZM93.7595 15.416C92.9095 16.708 91.4135 17.286 90.2065 17.286C87.0615 17.286 85.1065 14.974 85.1065 11.982C85.1065 8.99 87.0615 6.678 90.2065 6.678C91.4135 6.678 92.6885 7.188 93.4365 8.31L94.3545 7.545C93.3005 6.202 91.8385 5.658 90.2065 5.658C86.5345 5.658 83.9845 8.31 83.9845 11.982C83.9845 15.654 86.5345 18.306 90.2065 18.306C91.9745 18.306 93.5385 17.677 94.6775 16.113L93.7595 15.416ZM94.6622 18H95.8352L97.1952 14.804H103.57L104.879 18H106.137L101.071 5.964H99.9152L94.6622 18ZM103.162 13.784H97.6372L100.442 7.188L103.162 13.784ZM106.606 16.487C107.541 17.796 108.935 18.306 110.516 18.306C112.471 18.306 114.256 17.099 114.256 14.923C114.256 10.401 108.051 12.577 108.051 8.956C108.051 7.426 109.309 6.678 110.754 6.678C111.791 6.678 112.539 7.086 113.1 7.868L114.069 7.171C113.253 6.1 112.097 5.658 110.788 5.658C108.765 5.658 106.929 6.814 106.929 8.956C106.929 13.529 113.134 11.557 113.134 14.923C113.134 16.368 111.944 17.286 110.431 17.286C109.241 17.286 108.272 16.776 107.677 15.773L106.606 16.487ZM116.29 18H117.412V5.964H116.29V18ZM120.196 18H121.318V7.46H121.352L128.679 18H130.124V5.964H129.002V16.504H128.968L121.641 5.964H120.196V18ZM132.136 11.982C132.136 15.654 134.686 18.306 138.358 18.306C142.03 18.306 144.58 15.654 144.58 11.982C144.58 8.31 142.03 5.658 138.358 5.658C134.686 5.658 132.136 8.31 132.136 11.982ZM133.258 11.982C133.258 8.99 135.213 6.678 138.358 6.678C141.503 6.678 143.458 8.99 143.458 11.982C143.458 14.974 141.503 17.286 138.358 17.286C135.213 17.286 133.258 14.974 133.258 11.982ZM145.837 16.487C146.772 17.796 148.166 18.306 149.747 18.306C151.702 18.306 153.487 17.099 153.487 14.923C153.487 10.401 147.282 12.577 147.282 8.956C147.282 7.426 148.54 6.678 149.985 6.678C151.022 6.678 151.77 7.086 152.331 7.868L153.3 7.171C152.484 6.1 151.328 5.658 150.019 5.658C147.996 5.658 146.16 6.814 146.16 8.956C146.16 13.529 152.365 11.557 152.365 14.923C152.365 16.368 151.175 17.286 149.662 17.286C148.472 17.286 147.503 16.776 146.908 15.773L145.837 16.487Z" fill="white"/>
<path d="M16.5789 17.2222H4.42106L1.6579 8.61111L6.63158 12.5L10.5 2.5L14.3684 12.5L19.3421 8.61111L16.5789 17.2222Z" stroke="white"/>
<line x1="4.42105" y1="19.5" x2="16.5789" y2="19.5" stroke="white"/>
<ellipse cx="1.10526" cy="7.7778" rx="1.10526" ry="1.11111" fill="white"/>
<ellipse cx="19.8947" cy="7.7778" rx="1.10526" ry="1.11111" fill="white"/>
<ellipse cx="10.5" cy="1.11111" rx="1.10526" ry="1.11111" fill="white"/>
</g>
<defs>
<clipPath id="clip0">
<rect width="155" height="23" fill="white"/>
</clipPath>
</defs>
</svg>
