<?xml version="1.0" encoding="utf-8"?>
<!-- Generator: Adobe Illustrator 16.0.0, SVG Export Plug-In . SVG Version: 6.00 Build 0)  -->
<!DOCTYPE svg PUBLIC "-//W3C//DTD SVG 1.1//EN" "http://www.w3.org/Graphics/SVG/1.1/DTD/svg11.dtd">
<svg version="1.1" id="logo_copy_1_" xmlns="http://www.w3.org/2000/svg" xmlns:xlink="http://www.w3.org/1999/xlink" x="0px"
	 y="0px" width="1200px" height="831.121px" viewBox="0 0 1200 831.121" enable-background="new 0 0 1200 831.121"
	 xml:space="preserve">
<g id="miami_xA0_Image_1_">
	<g>
		<path fill="#FFFFFF" d="M42.328,503.765l-8.292,28.789l-6.835,24.938c-2.153,8.416-4.14,17.078-5.959,25.992
			c-0.497,4.166-0.974,7.102-1.429,8.809c-0.457,1.709-1.676,3.021-3.661,3.938l-1.737,0.25l-1.863,0.375l-2.233-0.375l-2.357-0.25
			c-0.993-0.5-1.49-1.539-1.49-3.121l0.498-3.498l0.498-3.119l55.807-179.547l18.852,27.221l13.606,19.48l19.101,26.725
			l21.597,29.971l41.197-59.797c3.246-4.83,6.533-9.662,9.861-14.492c1.165-1.748,4.41-6.58,9.737-14.492
			c4.494-6.745,7.74-11.616,9.737-14.616l12.483,41.704l14.232,48.07l15.729,53.812l12.732,44.701h-81.27l-7.49-28.09
			l-10.611-40.449l-7.49-28.088l-15.437,22.627l-13.155,19.314l-11.879,17.465L99.59,580.875L42.328,503.765z"/>
		<path fill="#FFFFFF" d="M344.033,595.23l0.25-14.605l0.25-14.605V443.802l-0.25-14.73l-0.25-14.357h81.271
			c0,4.912-0.105,9.656-0.312,14.232c-0.209,4.578-0.437,9.529-0.687,14.855v122.217c0,0.916,0.166,5.201,0.5,12.857
			c0.332,7.658,0.5,13.107,0.5,16.354H344.033L344.033,595.23z"/>
		<path fill="#FFFFFF" d="M625.42,595.23l-13.358-24.594h-92.005l-9.113,16.105c-3.08,5.66-5.534,8.82-7.366,9.486h-1.498
			c-1.997,0-3.37-0.666-4.119-1.998l-0.5-2.619c0-0.75,0.5-2.623,1.497-5.619c17.892-28.047,31.038-49.354,39.443-63.92
			l69.537-120.248L718.425,595.23H625.42z M607.444,561.4c-14.231-26.631-27.672-50.143-40.321-70.533L524.747,561.4H607.444z"/>
		<path fill="#FFFFFF" d="M808.961,503.765l-8.292,28.789l-6.835,24.938c-2.153,8.416-4.14,17.078-5.959,25.992
			c-0.497,4.166-0.975,7.102-1.429,8.809c-0.456,1.709-1.676,3.021-3.661,3.938l-1.737,0.25l-1.862,0.375l-2.233-0.375l-2.357-0.25
			c-0.993-0.5-1.49-1.539-1.49-3.121l0.497-3.498l0.497-3.119l55.807-179.547l18.852,27.221l13.606,19.48l19.102,26.725
			l21.598,29.971l41.196-59.797c3.246-4.83,6.532-9.662,9.862-14.492c1.164-1.748,4.409-6.58,9.736-14.492
			c4.494-6.745,7.74-11.616,9.737-14.616l12.484,41.704l14.23,48.07l15.729,53.812l12.732,44.701h-81.27l-7.49-28.09l-10.611-40.449
			l-7.489-28.088l-15.438,22.627l-13.155,19.314l-11.879,17.465l-15.219,22.863L808.961,503.765z"/>
		<path fill="#FFFFFF" d="M1110.666,595.23l0.25-14.605l0.25-14.605V443.802l-0.25-14.73l-0.25-14.357h81.271
			c0,4.912-0.104,9.656-0.312,14.232c-0.209,4.578-0.438,9.529-0.688,14.855v122.217c0,0.916,0.165,5.201,0.499,12.857
			c0.332,7.658,0.499,13.107,0.499,16.354H1110.666L1110.666,595.23z"/>
	</g>
	<g>
		<path fill="#FFFFFF" d="M413.927,717.662v43.41c0,38.877-24.806,62.967-69.168,62.967h-48.656c-2.385,0-3.101-0.717-3.101-3.102
			V657.796c0-2.385,0.716-3.1,3.101-3.1h48.656C389.121,654.697,413.927,678.785,413.927,717.662z M344.997,664.953h-41.023v148.83
			h41.023c37.208,0,57.958-19.559,57.958-52.711v-43.41C402.955,684.509,382.444,664.953,344.997,664.953z"/>
		<path fill="#FFFFFF" d="M509.811,654.697h5.008c2.147,0,2.862,0.715,2.862,3.1v163.141c0,2.387-0.715,3.102-2.862,3.102h-5.008
			c-2.385,0-3.101-0.715-3.101-3.102V657.796C506.709,655.412,507.425,654.697,509.811,654.697z"/>
		<path fill="#FFFFFF" d="M675.573,651.357c36.97,0,54.619,14.311,62.729,41.5c0.716,2.385,0,3.102-2.146,4.055l-4.293,1.432
			c-2.386,0.479-3.34,0.238-4.055-1.908c-7.155-23.611-21.229-34.822-52.234-34.822c-35.299,0-53.188,18.127-53.188,48.18v58.912
			c0,29.812,18.604,48.418,53.188,48.418c31.961,0,45.557-12.402,52.711-36.016c0.954-2.146,1.908-2.623,4.056-1.908l4.531,1.67
			c2.146,0.715,2.623,1.67,1.907,3.814c-8.109,27.191-25.281,42.693-63.205,42.693c-41.5,0-64.159-22.42-64.159-58.912v-58.434
			C611.414,673.777,633.358,651.357,675.573,651.357z"/>
		<path fill="#FFFFFF" d="M930.78,657.796v4.293c0,2.146-0.716,2.863-3.101,2.863h-89.441v68.213h79.187
			c2.146,0,2.861,0.715,2.861,2.863v4.293c0,2.385-0.716,3.1-2.861,3.1h-79.187v70.361h92.78c2.146,0,3.101,0.715,3.101,2.861v4.293
			c0,2.385-0.953,3.102-3.101,3.102H830.366c-2.385,0-3.101-0.717-3.101-3.102V657.796c0-2.385,0.716-3.1,3.101-3.1h97.312
			C930.064,654.697,930.78,655.412,930.78,657.796z"/>
	</g>
	<circle fill="#FFFFFF" cx="457.11" cy="138.255" r="24.75"/>
	<circle fill="#FFFFFF" cx="483.61" cy="237.755" r="24.75"/>
	<circle fill="#FFFFFF" cx="519.61" cy="174.755" r="24.75"/>
	<circle fill="#FFFFFF" cx="558.11" cy="111.755" r="24.75"/>
	<circle fill="#FFFFFF" cx="654.61" cy="211.255" r="24.75"/>
	<circle fill="#FFFFFF" cx="672.61" cy="281.255" r="24.75"/>
	<circle fill="#FFFFFF" cx="691.61" cy="351.755" r="24.75"/>
	<path fill="#3D3D3D" d="M561.719,223.825c-2.238-3.721-3.525-8.079-3.525-12.737c0-13.669,11.081-24.75,24.75-24.75
		c0.478,0,0.951,0.014,1.421,0.041"/>
	<path fill="none" stroke="#FFFFFF" stroke-width="7.2" stroke-miterlimit="10" d="M723.023,389.187
		c-7.046,12.202-22.65,16.381-34.853,9.333l-126.488-73.046c-12.202-7.046-16.38-22.649-9.334-34.851l69.672-120.645
		c7.047-12.201,22.648-16.38,34.851-9.334l126.488,73.048c12.202,7.046,16.382,22.649,9.336,34.851L723.023,389.187z"/>
	<path fill="none" stroke="#FFFFFF" stroke-width="7.344" stroke-miterlimit="10" d="M613.362,135.505L596.691,75.35
		c-3.94-13.82-18.34-21.826-32.161-17.884L421.256,98.333c-13.821,3.943-21.827,18.341-17.887,32.162l38.98,136.653
		c3.943,13.82,18.342,21.828,32.162,17.886l60.41-17.231L613.362,135.505z"/>
	<path fill="#FFFFFF" d="M561.719,223.825c-2.238-3.721-3.525-8.079-3.525-12.737c0-13.669,11.081-24.75,24.75-24.75
		c0.478,0,0.951,0.014,1.421,0.041"/>
</g>
</svg>
