<svg width="208" height="26" viewBox="0 0 208 26" fill="none" xmlns="http://www.w3.org/2000/svg">
<g clip-path="url(#clip0)">
<path d="M6.152 20H9.05V6.338H14.041V3.716H1.161V6.338H6.152V20ZM14.46 11.927C14.46 17.01 18.048 20.414 23.062 20.414C28.145 20.322 31.733 16.918 31.733 11.835C31.733 6.614 28.145 3.21 23.062 3.302C18.048 3.302 14.46 6.706 14.46 11.927ZM17.496 11.743C17.496 8.5 19.727 5.924 23.085 5.924C26.466 5.924 28.697 8.5 28.697 11.743C28.697 15.216 26.466 17.792 23.085 17.792C19.727 17.792 17.496 15.216 17.496 11.743ZM33.8032 20H36.7012V13.261H38.7712C42.2212 13.261 45.2802 12.525 45.2802 8.431C45.2802 4.82 42.4282 3.716 39.2772 3.716H33.8032V20ZM36.7012 10.777V6.2H38.7712C40.3352 6.2 42.2442 6.476 42.2442 8.477C42.2442 10.685 40.1052 10.777 38.4492 10.777H36.7012ZM66.7214 5.878C65.1114 4.015 63.2254 3.302 61.0174 3.302C56.0034 3.302 52.4154 6.706 52.4154 11.927C52.4154 17.01 56.0034 20.414 61.0174 20.414C63.4094 20.414 65.6174 19.54 67.0894 17.516L64.6974 15.814C63.6164 17.194 62.3514 17.792 61.0404 17.792C57.6824 17.792 55.4514 15.216 55.4514 11.743C55.4514 8.5 57.6824 5.924 61.0404 5.924C62.1674 5.924 63.2714 6.269 64.4674 7.534L66.7214 5.878ZM66.5275 20H69.7705L71.2425 16.274H78.3035L79.8215 20H83.1335L76.1185 3.716H73.6115L66.5275 20ZM72.2315 13.79L74.7845 7.166L77.2915 13.79H72.2315ZM94.3502 4.981C93.0852 3.785 91.3832 3.302 89.6812 3.302C86.6682 3.302 83.6782 4.866 83.6782 8.224C83.6782 14.043 91.4062 11.996 91.4062 15.561C91.4062 17.056 89.8882 17.792 88.5542 17.792C87.2662 17.792 86.0472 17.171 85.3342 16.09L83.1492 18.206C84.4832 19.793 86.4612 20.414 88.4852 20.414C91.6822 20.414 94.4422 18.712 94.4422 15.216C94.4422 9.42 86.7142 11.283 86.7142 8.017C86.7142 6.522 88.0482 5.924 89.3822 5.924C90.5092 5.924 91.6132 6.338 92.2342 7.212L94.3502 4.981ZM96.7012 20H99.5992V3.716H96.7012V20ZM102.482 20H105.38V7.511H105.426L113.476 20H117.156V3.716H114.258V15.814H114.212L106.323 3.716H102.482V20ZM119.223 11.927C119.223 17.01 122.811 20.414 127.825 20.414C132.908 20.322 136.496 16.918 136.496 11.835C136.496 6.614 132.908 3.21 127.825 3.302C122.811 3.302 119.223 6.706 119.223 11.927ZM122.259 11.743C122.259 8.5 124.49 5.924 127.848 5.924C131.229 5.924 133.46 8.5 133.46 11.743C133.46 15.216 131.229 17.792 127.848 17.792C124.49 17.792 122.259 15.216 122.259 11.743ZM148.663 4.981C147.398 3.785 145.696 3.302 143.994 3.302C140.981 3.302 137.991 4.866 137.991 8.224C137.991 14.043 145.719 11.996 145.719 15.561C145.719 17.056 144.201 17.792 142.867 17.792C141.579 17.792 140.36 17.171 139.647 16.09L137.462 18.206C138.796 19.793 140.774 20.414 142.798 20.414C145.995 20.414 148.755 18.712 148.755 15.216C148.755 9.42 141.027 11.283 141.027 8.017C141.027 6.522 142.361 5.924 143.695 5.924C144.822 5.924 145.926 6.338 146.547 7.212L148.663 4.981ZM156.739 20H167.641V17.516H160.097L165.134 12.847C166.583 11.513 167.641 10.11 167.641 8.063C167.641 4.935 165.295 3.44 162.374 3.44C159.43 3.44 157.245 5.027 156.969 8.04L159.867 8.27C160.051 6.936 161.017 6.062 162.374 6.062C163.639 6.062 164.743 6.867 164.743 8.201C164.743 9.328 163.823 10.225 163.064 10.961L156.739 17.079V20ZM169.223 11.858C169.223 19.563 173.294 20.276 175.111 20.276C176.928 20.276 180.999 19.563 180.999 11.858C180.999 4.153 176.928 3.44 175.111 3.44C173.294 3.44 169.223 4.153 169.223 11.858ZM171.983 11.858C171.983 9.834 172.351 6.062 175.111 6.062C177.871 6.062 178.239 9.834 178.239 11.858C178.239 13.882 177.871 17.654 175.111 17.654C172.351 17.654 171.983 13.882 171.983 11.858ZM182.582 20H193.484V17.516H185.94L190.977 12.847C192.426 11.513 193.484 10.11 193.484 8.063C193.484 4.935 191.138 3.44 188.217 3.44C185.273 3.44 183.088 5.027 182.812 8.04L185.71 8.27C185.894 6.936 186.86 6.062 188.217 6.062C189.482 6.062 190.586 6.867 190.586 8.201C190.586 9.328 189.666 10.225 188.907 10.961L182.582 17.079V20ZM195.066 11.858C195.066 19.563 199.137 20.276 200.954 20.276C202.771 20.276 206.842 19.563 206.842 11.858C206.842 4.153 202.771 3.44 200.954 3.44C199.137 3.44 195.066 4.153 195.066 11.858ZM197.826 11.858C197.826 9.834 198.194 6.062 200.954 6.062C203.714 6.062 204.082 9.834 204.082 11.858C204.082 13.882 203.714 17.654 200.954 17.654C198.194 17.654 197.826 13.882 197.826 11.858Z" fill="#222222"/>
<path d="M5.152 19H8.05V5.338H13.041V2.716H0.161V5.338H5.152V19ZM13.46 10.927C13.46 16.01 17.048 19.414 22.062 19.414C27.145 19.322 30.733 15.918 30.733 10.835C30.733 5.614 27.145 2.21 22.062 2.302C17.048 2.302 13.46 5.706 13.46 10.927ZM16.496 10.743C16.496 7.5 18.727 4.924 22.085 4.924C25.466 4.924 27.697 7.5 27.697 10.743C27.697 14.216 25.466 16.792 22.085 16.792C18.727 16.792 16.496 14.216 16.496 10.743ZM32.8032 19H35.7012V12.261H37.7712C41.2212 12.261 44.2802 11.525 44.2802 7.431C44.2802 3.82 41.4282 2.716 38.2772 2.716H32.8032V19ZM35.7012 9.777V5.2H37.7712C39.3352 5.2 41.2442 5.476 41.2442 7.477C41.2442 9.685 39.1052 9.777 37.4492 9.777H35.7012ZM65.7214 4.878C64.1114 3.015 62.2254 2.302 60.0174 2.302C55.0034 2.302 51.4154 5.706 51.4154 10.927C51.4154 16.01 55.0034 19.414 60.0174 19.414C62.4094 19.414 64.6174 18.54 66.0894 16.516L63.6974 14.814C62.6164 16.194 61.3514 16.792 60.0404 16.792C56.6824 16.792 54.4514 14.216 54.4514 10.743C54.4514 7.5 56.6824 4.924 60.0404 4.924C61.1674 4.924 62.2714 5.269 63.4674 6.534L65.7214 4.878ZM65.5275 19H68.7705L70.2425 15.274H77.3035L78.8215 19H82.1335L75.1185 2.716H72.6115L65.5275 19ZM71.2315 12.79L73.7845 6.166L76.2915 12.79H71.2315ZM93.3502 3.981C92.0852 2.785 90.3832 2.302 88.6812 2.302C85.6682 2.302 82.6782 3.866 82.6782 7.224C82.6782 13.043 90.4062 10.996 90.4062 14.561C90.4062 16.056 88.8882 16.792 87.5542 16.792C86.2662 16.792 85.0472 16.171 84.3342 15.09L82.1492 17.206C83.4832 18.793 85.4612 19.414 87.4852 19.414C90.6822 19.414 93.4422 17.712 93.4422 14.216C93.4422 8.42 85.7142 10.283 85.7142 7.017C85.7142 5.522 87.0482 4.924 88.3822 4.924C89.5092 4.924 90.6132 5.338 91.2342 6.212L93.3502 3.981ZM95.7012 19H98.5992V2.716H95.7012V19ZM101.482 19H104.38V6.511H104.426L112.476 19H116.156V2.716H113.258V14.814H113.212L105.323 2.716H101.482V19ZM118.223 10.927C118.223 16.01 121.811 19.414 126.825 19.414C131.908 19.322 135.496 15.918 135.496 10.835C135.496 5.614 131.908 2.21 126.825 2.302C121.811 2.302 118.223 5.706 118.223 10.927ZM121.259 10.743C121.259 7.5 123.49 4.924 126.848 4.924C130.229 4.924 132.46 7.5 132.46 10.743C132.46 14.216 130.229 16.792 126.848 16.792C123.49 16.792 121.259 14.216 121.259 10.743ZM147.663 3.981C146.398 2.785 144.696 2.302 142.994 2.302C139.981 2.302 136.991 3.866 136.991 7.224C136.991 13.043 144.719 10.996 144.719 14.561C144.719 16.056 143.201 16.792 141.867 16.792C140.579 16.792 139.36 16.171 138.647 15.09L136.462 17.206C137.796 18.793 139.774 19.414 141.798 19.414C144.995 19.414 147.755 17.712 147.755 14.216C147.755 8.42 140.027 10.283 140.027 7.017C140.027 5.522 141.361 4.924 142.695 4.924C143.822 4.924 144.926 5.338 145.547 6.212L147.663 3.981ZM155.739 19H166.641V16.516H159.097L164.134 11.847C165.583 10.513 166.641 9.11 166.641 7.063C166.641 3.935 164.295 2.44 161.374 2.44C158.43 2.44 156.245 4.027 155.969 7.04L158.867 7.27C159.051 5.936 160.017 5.062 161.374 5.062C162.639 5.062 163.743 5.867 163.743 7.201C163.743 8.328 162.823 9.225 162.064 9.961L155.739 16.079V19ZM168.223 10.858C168.223 18.563 172.294 19.276 174.111 19.276C175.928 19.276 179.999 18.563 179.999 10.858C179.999 3.153 175.928 2.44 174.111 2.44C172.294 2.44 168.223 3.153 168.223 10.858ZM170.983 10.858C170.983 8.834 171.351 5.062 174.111 5.062C176.871 5.062 177.239 8.834 177.239 10.858C177.239 12.882 176.871 16.654 174.111 16.654C171.351 16.654 170.983 12.882 170.983 10.858ZM181.582 19H192.484V16.516H184.94L189.977 11.847C191.426 10.513 192.484 9.11 192.484 7.063C192.484 3.935 190.138 2.44 187.217 2.44C184.273 2.44 182.088 4.027 181.812 7.04L184.71 7.27C184.894 5.936 185.86 5.062 187.217 5.062C188.482 5.062 189.586 5.867 189.586 7.201C189.586 8.328 188.666 9.225 187.907 9.961L181.582 16.079V19ZM194.066 10.858C194.066 18.563 198.137 19.276 199.954 19.276C201.771 19.276 205.842 18.563 205.842 10.858C205.842 3.153 201.771 2.44 199.954 2.44C198.137 2.44 194.066 3.153 194.066 10.858ZM196.826 10.858C196.826 8.834 197.194 5.062 199.954 5.062C202.714 5.062 203.082 8.834 203.082 10.858C203.082 12.882 202.714 16.654 199.954 16.654C197.194 16.654 196.826 12.882 196.826 10.858Z" fill="white"/>
</g>
<defs>
<clipPath id="clip0">
<rect width="208" height="26" fill="white"/>
</clipPath>
</defs>
</svg>
